Patient4_TMGait_0pt7_01_left_36_EMG.mot
version=1
nRows=16
nColumns=33
inDegrees=no
endheader
time	1LAddLong	2LGlutMax	3LGlutMed	4LIliopsoas	5LSemiMemb	6LBicFemLong	7LRecFem	8LVastMed	9LVastLat	10LGasMed	11LTibAnt	12lTibPost	13LPeroneusLong	14LSol	15LExtDigLong	16LFlexDigLong	17RAddLong	18RGlutMax	19RGlutMed	20RIliopsoas	21RSemiMemb	22RBicFemLong	23RRecFem	24RVastMed	25RVastLat	26RGasMed	27RTibAnt	28RTibPost	29RPeroneusLong	30RSol	31RExtDigLong	32RFlexDigLong
42.805	-0.000763	0.20187	-0.015564	0.00824	-0.04837	-0.023499	-0.083771	0.006409	0.13763	-0.040283	-0.002594	-0.013275	0.084534	0.059204	-0.1384	0.005798	-0.01236	0.30762	0.093536	-0.010223	0.014038	-0.077209	0.26001	-0.009308	0.016479	-0.007324	-0.21149	0.10666	0.10727	-0.78064	-0.004883	-0.012817
42.806	0.030518	0.20966	-0.033569	0.000763	-0.015564	-0.029907	-0.08606	-0.00351	0.12894	0.044708	0.083923	-0.007782	0.079041	-0.10803	-0.16785	0.004578	0.00061	0.22201	-0.15106	0.033875	-0.21729	-0.030975	0.19577	0.074768	-0.05722	0.018616	-0.30212	-0.079498	0.068665	-0.94254	-0.008392	-0.021973
42.807	0.017395	0.21332	-0.023651	0.006104	0.018005	-0.022888	-0.08316	-0.001068	0.12711	0.061035	0.10056	-0.016327	0.10986	-0.20691	-0.17151	0.014801	0.000305	0.13947	-0.092468	0.005951	-0.19959	-0.036316	-0.055237	0.04837	-0.103	0.010986	0.23483	-0.06134	-0.001678	-1.0158	-0.002594	-0.021057
42.808	0.019989	0.20386	-0.050354	0.010376	-0.010834	-0.013733	-0.085907	0.005188	0.11917	0.072784	0.055389	-0.006714	0.12863	-0.1059	-0.10132	0.014343	-0.021667	0.067596	-0.037689	0.007477	0.025635	-0.03067	-0.10925	0.065308	0.023346	0.011139	0.4184	-0.039368	0.085449	-0.52582	-0.00061	-0.019989
42.809	0.018616	0.17593	-0.17029	0.002441	-0.004578	-0.00885	-0.094604	0.00473	0.11383	0.071564	-0.077209	-0.014038	0.20584	0.001526	0.036774	0.015106	-0.020294	0.028381	0.33905	0.015717	0.1796	-0.042419	-0.091858	0.12375	0.024109	0.004883	-0.75607	-0.019073	0.038757	0.077209	-0.001831	-0.018921
42.81	0.008698	0.19424	-0.11078	0.005341	0.005035	0.007629	-0.081024	0.002136	0.10651	0.064392	-0.066071	-0.01297	0.13123	0.032654	0.11368	0.002747	-0.003967	0.046844	0.74829	0.029449	0.19363	-0.18036	0.00946	0.084991	-0.014038	-0.009155	-0.66727	0.000916	-0.094452	-0.062256	0.00412	-0.013885
42.811	0.01297	0.19745	-0.049286	0.011292	-0.00824	-0.009766	-0.078583	0.003357	0.082397	0.036469	0.064545	-0.012817	0.092468	0.039673	0.10651	0.009155	0.020752	-0.075226	-0.085754	0.07431	0.15854	-0.31876	-0.048828	-0.006409	0.064087	0.003662	-0.48599	0.01297	-0.12085	0.30685	-0.000763	-0.013123
42.812	0.010071	0.15457	0.050049	0.000305	-0.010986	-0.007935	-0.070038	0.007629	0.089111	0.008545	0.1944	-0.00824	0.098572	0.036316	0.050812	-0.001526	0.019836	-0.13138	0.17212	0.028839	-0.050507	-0.32623	-0.09964	0.011749	0.11414	0.009766	-0.42831	0.00824	-0.13702	-0.096436	-0.002747	-0.009766
42.813	0.00885	0.13611	0.02182	0.005798	-0.011444	-0.034027	-0.06073	0.001068	0.090179	-0.015717	0.17441	-0.018005	0.092163	0.018005	-0.072174	0.008392	0.007172	-0.15366	0.2742	-0.03067	-0.24292	-0.24796	-0.032654	0.081329	0.15091	0.005188	0.35934	0.000458	-0.14526	-0.55176	-0.003357	-0.012207
42.814	0.014954	0.13763	-0.056458	0.001221	-0.044403	-0.057526	-0.079498	0.003204	0.077515	-0.006866	-0.003967	-0.017548	0.12238	-0.029297	-0.041199	-0.011139	0.007629	-0.19394	-0.048065	-0.023956	-0.22263	-0.22598	0.215	0.098114	0.10346	-0.014496	0.68756	-0.000305	-0.13214	-0.56076	0.001221	-0.004272
42.815	0.024261	0.15915	-0.08667	0.001678	-0.006714	-0.055695	-0.084534	-0.009766	0.069427	-0.017548	-0.14496	-0.012817	0.091248	-0.053101	0.013123	-0.014954	-0.001678	-0.17364	0.062408	-0.054321	-0.12329	-0.082397	0.14481	0.11185	0.082245	-0.028839	0.23315	-0.001678	0.026855	-0.40436	-0.009766	-0.003662
42.816	0.016174	0.20798	-0.10788	0.005188	0.019226	-0.062256	-0.060272	-0.001984	0.065308	-0.027161	-0.233	-0.017242	0.13809	-0.029144	0.038757	-0.004425	-0.012665	-0.14984	-0.037994	-0.15198	0.10925	-0.055542	0.094299	0.09964	0.03006	-0.024109	-0.31967	-0.015717	0.17288	-0.26001	-0.002289	-0.008698
42.817	0.023804	0.25055	-0.087128	0.004578	0.022736	-0.032959	-0.063171	-0.001831	0.063782	-0.033112	-0.21866	-0.015564	0.16235	0.060425	0.023499	-0.000153	-0.010071	-0.17303	-0.16998	-0.070648	0.23148	-0.02533	0.14618	0.044861	-0.041504	0.001068	-0.065918	-0.015717	0.065308	0.3775	-0.003204	-0.003052
42.818	0.010071	0.23972	0.066986	0	0.003052	-0.026855	-0.069122	0.001678	0.038605	-0.026398	-0.15305	-0.028534	0.12543	0.10834	0.053558	-0.00351	-0.011444	-0.23346	-0.20477	-0.020599	0.019684	-0.018463	0.013123	-0.092621	0.012054	0.019989	0.093231	-0.02655	-0.072174	0.50156	-0.002136	-0.014496
42.819	0.009766	0.20828	0.030823	-0.006256	-0.021362	0.011292	-0.052795	0.005646	0.042877	-0.043182	-0.032501	-0.01297	0.1329	0.075836	0.075531	0.004578	-0.011444	-0.28137	-0.20874	0.059052	-0.006561	-0.053101	-0.27664	-0.35767	0.04837	-0.014801	-0.17136	0.02594	0.033264	0.7547	-0.003815	-0.002899
42.82	-0.001526	0.20203	-0.063934	-0.007324	-0.042114	0.015564	-0.066833	0.001678	0.023804	-0.027466	0.11765	-0.006256	0.2063	-0.059967	0.041962	-0.013428	-0.015869	-0.22751	-0.17929	0.14984	-0.056152	-0.067596	-0.39017	-0.3305	0.068512	-0.054932	0.001068	0.023651	0.24857	0.60471	0.000153	-0.005188
